name C:\Users\u0150099\Documents\master_thesis\3dpredictsim\Results\debug\Fal_s1_mtp_sc_cspx10_oy_MTPp_k17_d05_ig21.mot
datacolumns 126
datarows 4
range 0.53236265 0.56430440
endheader
time	pelvis_tilt	pelvis_list	pelvis_rotation	pelvis_tx	pelvis_ty	pelvis_tz	hip_flexion_l	hip_adduction_l	hip_rotation_l	hip_flexion_r	hip_adduction_r	hip_rotation_r	knee_angle_l	knee_angle_r	ankle_angle_l	ankle_angle_r	subtalar_angle_l	subtalar_angle_r	mtj_angle_l	mtj_angle_r	mtp_angle_l	mtp_angle_r	lumbar_extension	lumbar_bending	lumbar_rotation	arm_flex_l	arm_add_l	arm_rot_l	arm_flex_r	arm_add_r	arm_rot_r	elbow_flex_l	elbow_flex_r	glut_med1_l/activation	glut_med2_l/activation	glut_med3_l/activation	glut_min1_l/activation	glut_min2_l/activation	glut_min3_l/activation	semimem_l/activation	semiten_l/activation	bifemlh_l/activation	bifemsh_l/activation	sar_l/activation	add_long_l/activation	add_brev_l/activation	add_mag1_l/activation	add_mag2_l/activation	add_mag3_l/activation	tfl_l/activation	pect_l/activation	grac_l/activation	glut_max1_l/activation	glut_max2_l/activation	glut_max3_l/activation	iliacus_l/activation	psoas_l/activation	quad_fem_l/activation	gem_l/activation	peri_l/activation	rect_fem_l/activation	vas_med_l/activation	vas_int_l/activation	vas_lat_l/activation	med_gas_l/activation	lat_gas_l/activation	soleus_l/activation	tib_post_l/activation	flex_dig_l/activation	flex_hal_l/activation	tib_ant_l/activation	per_brev_l/activation	per_long_l/activation	per_tert_l/activation	ext_dig_l/activation	ext_hal_l/activation	ercspn_l/activation	intobl_l/activation	extobl_l/activation	glut_med1_r/activation	glut_med2_r/activation	glut_med3_r/activation	glut_min1_r/activation	glut_min2_r/activation	glut_min3_r/activation	semimem_r/activation	semiten_r/activation	bifemlh_r/activation	bifemsh_r/activation	sar_r/activation	add_long_r/activation	add_brev_r/activation	add_mag1_r/activation	add_mag2_r/activation	add_mag3_r/activation	tfl_r/activation	pect_r/activation	grac_r/activation	glut_max1_r/activation	glut_max2_r/activation	glut_max3_r/activation	iliacus_r/activation	psoas_r/activation	quad_fem_r/activation	gem_r/activation	peri_r/activation	rect_fem_r/activation	vas_med_r/activation	vas_int_r/activation	vas_lat_r/activation	med_gas_r/activation	lat_gas_r/activation	soleus_r/activation	tib_post_r/activation	flex_dig_r/activation	flex_hal_r/activation	tib_ant_r/activation	per_brev_r/activation	per_long_r/activation	per_tert_r/activation	ext_dig_r/activation	ext_hal_r/activation	ercspn_r/activation	intobl_r/activation	extobl_r/activation	
          0.53236265	         -2.92918180	          0.93873790	         -3.07338234	          0.70804232	          0.90804471	          0.00488730	         29.92079532	          2.04797071	         -1.46204668	        -18.52274307	          1.38595824	          9.03485290	        -11.30833439	         -3.67381785	          9.43838694	          7.77768578	         -1.51159385	          7.90916377	          0.18371851	         14.39569094	         -3.30257873	         -0.05063852	          1.73408368	         -5.84423689	        -13.53629555	          7.14910654	          6.10151795	        -13.84532620	         19.37641117	         22.12883124	         30.26337660	         86.51662706	         86.51662706	          0.05000048	          0.05000083	          0.05000035	          0.05000155	          0.05000122	          0.05000073	          0.19800974	          0.07192135	          0.30891243	          0.05000011	          0.05000036	          0.13368895	          0.14317350	          0.13974503	          0.12910259	          0.11671834	          0.05000141	          0.05002201	          0.08750030	          0.05000212	          0.06033893	          0.08204107	          0.05640538	          0.05566541	          0.11158249	          0.05000255	          0.05000031	          0.05000013	          0.05477166	          0.05266245	          0.05000735	          0.05000008	          0.05000020	          0.05003065	          0.05000029	          0.05000101	          0.05000063	          0.43156204	          0.24099936	          0.15122953	          0.19940549	          0.42102791	          0.17976950	          0.07659240	          0.08346074	          0.12984935	          0.39439695	          0.12741318	          0.09312563	          0.55626678	          0.34079951	          0.15300882	          0.05000050	          0.05000010	          0.05000008	          0.10935377	          0.13769068	          0.05000003	          0.05000006	          0.05000011	          0.05000041	          0.05000033	          0.63437338	          0.05000019	          0.05000023	          0.05887479	          0.05887058	          0.05000092	          0.49417052	          0.78186237	          0.05000018	          0.05887274	          0.06704879	          0.26958156	          0.05001568	          0.05002104	          0.05000706	          0.40146075	          0.51131628	          0.33992183	          0.39631360	          0.50757568	          0.53790538	          0.08046230	          0.05000002	          0.05000003	          0.05000002	          0.05000043	          0.06318974	          0.05000000	          0.05000001	          0.05000001	
          0.54300990	         -2.92991458	          1.05790529	         -3.37992323	          0.72449841	          0.90734286	          0.00458027	         29.54684726	          2.41929443	         -1.39132052	        -18.49749548	          1.10090662	          8.92307705	        -10.74545925	         -5.51494477	          9.36988055	          7.18606042	         -1.71500296	          8.88971433	          0.25341571	         15.70873484	         -3.16316869	         -0.27769432	          1.85466925	         -6.63104854	        -13.48741425	          6.68658528	          5.90211118	        -13.80157069	         19.36732488	         21.62135371	         31.53207146	         86.51662706	         86.51662706	          0.05000283	          0.05000021	          0.05003280	          0.05000015	          0.05000020	          0.05000040	          0.19959848	          0.07923978	          0.30222808	          0.05256828	          0.05000092	          0.11354106	          0.12159717	          0.11868484	          0.14203684	          0.14476674	          0.05000086	          0.05013772	          0.09231688	          0.05887255	          0.09442319	          0.09606675	          0.05000008	          0.05000010	          0.11251896	          0.05000020	          0.05000017	          0.05000008	          0.05000043	          0.05000046	          0.05000029	          0.05000420	          0.05000020	          0.05103387	          0.05608258	          0.05000250	          0.05005426	          0.43757846	          0.25771834	          0.15768379	          0.20076340	          0.42578815	          0.17305388	          0.06931990	          0.07088237	          0.11027975	          0.34803244	          0.10821074	          0.07909066	          0.47243201	          0.28943761	          0.12994886	          0.05000052	          0.05000008	          0.05000005	          0.09287306	          0.11693936	          0.05234379	          0.05000009	          0.05000011	          0.05000037	          0.05000026	          0.57631243	          0.05000268	          0.05000017	          0.05000199	          0.05000029	          0.05000025	          0.41969419	          0.77012271	          0.05000002	          0.05000018	          0.05694388	          0.29412308	          0.05000017	          0.05000016	          0.05000016	          0.34095657	          0.43425578	          0.30467047	          0.37234711	          0.51147793	          0.52876490	          0.06833582	          0.05098490	          0.06931994	          0.05000005	          0.05000000	          0.05366643	          0.05000000	          0.05000000	          0.05000001	
          0.55365715	         -2.92673351	          1.17570339	         -3.67833983	          0.74129519	          0.90674610	          0.00423816	         29.15666485	          2.79155146	         -1.28816498	        -18.36648970	          0.80953231	          8.77347933	        -10.77423807	         -7.52706124	          8.99815074	          6.36889113	         -1.88731861	          9.93329548	          0.32095497	         17.07941326	         -3.00014001	         -0.50481546	          1.96849797	         -7.45609794	        -13.45763448	          6.47283414	          5.60765698	        -13.74941420	         19.24843691	         21.14997792	         32.82940810	         86.51662706	         86.51662706	          0.05887266	          0.05887252	          0.05000005	          0.05887271	          0.05887270	          0.05002347	          0.17694676	          0.06729763	          0.26851969	          0.05000028	          0.05000044	          0.11338543	          0.21050821	          0.10079806	          0.12063255	          0.17362713	          0.05000006	          0.08161916	          0.07840423	          0.05000012	          0.16533332	          0.20726245	          0.05887325	          0.05000023	          0.19679269	          0.17382275	          0.09312382	          0.05000015	          0.05925100	          0.05896091	          0.05887463	          0.05000020	          0.05000788	          0.05000002	          0.05000005	          0.05000017	          0.05000021	          0.49922923	          0.31502694	          0.16664938	          0.30490548	          0.47167908	          0.20931999	          0.05887270	          0.06019969	          0.09365949	          0.29558047	          0.09190229	          0.06717091	          0.40123179	          0.24581646	          0.11036427	          0.05000039	          0.05000006	          0.05000004	          0.07887616	          0.09931546	          0.11686580	          0.12766096	          0.05000083	          0.05000115	          0.05000028	          0.53688323	          0.09797534	          0.05000044	          0.05000031	          0.05000024	          0.05000026	          0.35644206	          0.72132747	          0.05000004	          0.05000013	          0.05000002	          0.27692255	          0.07583522	          0.07005165	          0.09467886	          0.28957098	          0.36880906	          0.25875356	          0.34978089	          0.44329221	          0.47132569	          0.05803692	          0.05000018	          0.05887276	          0.05000003	          0.05000000	          0.05000003	          0.05000002	          0.05000003	          0.05000001	
          0.56430440	         -2.91949100	          1.30111885	         -3.96343376	          0.75835422	          0.90618951	          0.00387860	         28.76014720	          3.13107669	         -1.15081263	        -18.12950647	          0.50977583	          8.58775024	        -11.48245080	         -9.69582070	          8.25540531	          5.31476742	         -2.03841020	         10.99969453	          0.38497085	         18.48450812	         -2.82054415	         -0.74083578	          2.07331089	         -8.30006153	        -13.45020067	          6.47894989	          5.22671511	        -13.70141104	         19.07538665	         20.70398741	         34.17438225	         86.51662706	         86.51662706	          0.05000000	          0.05000002	          0.12986431	          0.05000002	          0.05000002	          0.05000003	          0.15027911	          0.05715579	          0.22805107	          0.05000023	          0.05000242	          0.09629718	          0.26476420	          0.33592245	          0.26359108	          0.19930583	          0.05000015	          0.06931955	          0.15854923	          0.12477550	          0.18319135	          0.20207377	          0.05000050	          0.05887283	          0.44437157	          0.14762594	          0.07908914	          0.05000017	          0.05032138	          0.05007500	          0.05000172	          0.05887295	          0.06879991	          0.05887276	          0.05887280	          0.05887274	          0.05887290	          0.43106175	          0.29557085	          0.16103193	          0.34516864	          0.48374017	          0.17777343	          0.05000000	          0.05112699	          0.07954406	          0.25103353	          0.07805170	          0.05887264	          0.34076214	          0.20876946	          0.09373127	          0.05000143	          0.05000021	          0.05000083	          0.06698874	          0.08434764	          0.20179003	          0.27194172	          0.05887655	          0.05887280	          0.05899730	          0.45597159	          0.08320966	          0.05000079	          0.05001256	          0.05002806	          0.05887202	          0.30272266	          0.65720542	          0.05887267	          0.05887268	          0.05000190	          0.23518764	          0.15644037	          0.15687515	          0.11106393	          0.24592972	          0.31322582	          0.21975679	          0.29707031	          0.37648369	          0.40029225	          0.05000000	          0.05000001	          0.05000007	          0.05000001	          0.05000000	          0.05000003	          0.07345236	          0.05887273	          0.05887272	
